<?xml version="1.0" encoding="UTF-8"?>
<!-- Created with Inkscape (http://www.inkscape.org/) -->
<svg width="150mm" height="230mm" version="1.1" viewBox="25 40 160 207" xmlns="http://www.w3.org/2000/svg">
 <path d="m150.71 134.33c-3.2728 1.1021-5.1523 2.8581-6.1016 4.6973-2.9151 1.5714-4.7734 3.9219-4.7734 3.9219a1.4825 1.4825 0 0 0 0.26562 2.0781 1.4825 1.4825 0 0 0 2.0801-0.26563s0.86052-0.87622 1.8066-1.6973c0.41167 1.884 1.7503 3.3615 3.6152 3.5996 2.8907 0.36902 5.1315-1.651 5.8301-3.8555 0.34931-1.1022 0.35562-2.3824-0.34375-3.4648-0.58934-0.91213-1.6934-1.3997-2.9355-1.5606 0.47646-0.21658 0.89131-0.43891 1.502-0.64453a1.4825 1.4825 0 0 0 0.93164-1.877 1.4825 1.4825 0 0 0-1.877-0.93164zm-1.2227 6.2774c0.86618 0 1.0214 0.2066 1.1113 0.3457 0.0899 0.1391 0.1605 0.47717 8e-3 0.95899-0.30537 0.96362-1.3232 1.977-2.627 1.8105-0.0726-9e-3 -1.235-1.079-1.2012-2.4785 0.85045-0.37623 1.7664-0.63672 2.709-0.63672z" color="#000000" fill="#fff" stroke="#000" stroke-linecap="round" stroke-width=".92604"/>
 <g fill="none" stroke="#000">
  <path d="m115.57 198.92-1.8741 13.297s-0.98167 1.9633-5.9793 2.0526c-4.9976 0.0892-5.533-2.4988-5.533-2.4988l-1.5171-11.959z" stroke-width=".92604"/>
  <path d="m129.54 187.75 0.35697 9.4597s1.5171 2.1418 5.7115 2.1418 5.6223-2.6773 5.6223-2.6773l2.4988-15.617-13.922 0.35697z" stroke-width=".92604"/>
  <path d="m77.73 192.32 1.4279 9.8167s0.98167 1.9634 5.89 2.1418c4.9084 0.17849 5.6223-3.2127 5.6223-3.2127l1.3386-10.263z" stroke-width=".92604"/>
 </g>
 <path d="m87.279 142.25 19.812-7.8534s19.665-9.07 35.34 11.245c18.6 24.104-0.0892 40.962-0.0892 40.962l-24.72 13.654s-33.377 12.137-46.585-14.279c-15.416-30.831 16.242-43.729 16.242-43.729z" fill="#fff" stroke="#000" stroke-width=".92604"/>
 <path d="m71.055 155.74s-4.6248-11.173-3.7871-15.137c0.49931-2.3625 2.3174-2.7118 6.8984-2.5371 4.581 0.17463 9.5694 1.8736 12.532 3.7716 4.0387 2.5873 5.6439 7.4013 3.9756 7.5725-1.8505 0.18993-8.1856-0.97376-12.684 0.69415-5.6163 2.0824-6.9351 5.6356-6.9351 5.6356z" fill="#fff"/>
 <path d="m88.977 149.43s-6.5628-1.3883-12.116 1.2621c-5.5532 2.6504-5.8056 5.0483-5.8056 5.0483s-3.66-10.349-3.66-14.009 5.427-1.3883 7.8249-0.25242c2.398 1.1359 11.864 8.5822 15.019 7.9511 3.1552-0.63104-0.88346-6.9415-5.8056-8.9608-4.9221-2.0193-16.407-4.0387-17.164 0.12621" fill="none" stroke="#000" stroke-width=".92604"/>
 <path d="m118.91 140.13s1.6082-0.7542 0.59561-1.7347c-0.77105-0.74663-1.837-0.77105-2.8132-0.50089-4.1057 1.5142-17.189 6.6008-20.049 7.8499 0 0-1.8484 0.73731-0.67599 2.2021 0.72711 0.90843 2.8006 0.20786 2.8006 0.20786 2.9737-1.3301 17.485-6.9434 20.142-8.0242z" fill="none" stroke="#000" stroke-width=".92604"/>
 <g transform="rotate(2.7101 38.763 208.46)">
  <path d="m64.104 176.72 5.963-2.535c3.3229-1.4126 8.005 0.93411 11.414 4.2771 4.9195 4.8239 4.6843 11.251 2.2109 12.494l-6.6422 3.3373s-8.3929-2.5242-10.475-6.3104c-2.0824-3.7863-2.4706-11.263-2.4706-11.263z" fill="#fff" stroke="#000" stroke-width=".92604"/>
  <ellipse cx="68.048" cy="185.71" rx="1.9187" ry="2.3203" fill="none"/>
  <g stroke="#000" stroke-width=".92604">
   <path d="m71.813 178.58c11.99 7.6987 8.7201 20.877-1.5145 14.135-12.483-8.2224-10.097-21.455 1.5145-14.135z" fill="#fff"/>
   <g transform="translate(5.7034 4.9507)" fill="none">
    <path d="m67.144 184.55c1.3801 1.5171 2.465 0.54087 2.465 0.54087s1.1662-1.3898-0.93705-3.302c-1.8556-1.687-2.588-0.17849-2.588-0.17849s-0.70087 0.92306 1.0601 2.9396z"/>
    <path d="m69.42 185.12s-1.1347-0.51047-1.8148-1.4379c-1.521-2.0741-0.44825-2.4843-0.44825-2.4843"/>
   </g>
   <g fill="none">
    <path d="m67.144 184.55c1.3801 1.5171 2.465 0.54087 2.465 0.54087s1.1662-1.3898-0.93705-3.302c-1.8556-1.687-2.588-0.17849-2.588-0.17849s-0.70087 0.92306 1.0601 2.9396z"/>
    <path d="m69.42 185.12s-1.1347-0.51047-1.8148-1.4379c-1.521-2.0741-0.44825-2.4843-0.44825-2.4843"/>
   </g>
  </g>
 </g>
 <ellipse transform="matrix(.99977 .021456 0 1 0 0)" cx="88.219" cy="174.94" rx="2.8088" ry="3.5969" fill-rule="evenodd" stroke="#000" stroke-width=".92615"/>
 <ellipse cx="89.634" cy="174.99" rx=".60239" ry=".79077" fill="#fff"/>
 <g transform="translate(-14.027 -7.376)">
  <ellipse transform="matrix(.99977 .021456 0 1 0 0)" cx="88.219" cy="174.94" rx="2.8088" ry="3.5969" fill-rule="evenodd" stroke="#000" stroke-width=".92615"/>
  <ellipse cx="89.634" cy="174.99" rx=".60239" ry=".79077" fill="#fff"/>
 </g>
 <g transform="rotate(30 61.188 162.76)">
  <path d="m63.925 109.04c-2.1956 0-3.9756-3.1643-3.9756-7.0677m0 0c-1e-6 -3.9034 1.7799-7.0677 3.9756-7.0677l3.4538-0.0436v14.279l-3.4538-0.0999" fill="#ffbd00" stroke="#000" stroke-linecap="round" stroke-linejoin="round" stroke-width=".92604"/>
  <ellipse cx="67.244" cy="102" rx="4.0165" ry="7.1086" fill="#ffbd00" stroke="#000" stroke-linecap="round" stroke-width=".93348"/>
  <path d="m60.801 99.515c0.66259-0.66259 1.199-0.94656 1.3252-0.41018 0.12621 0.53638 0 1.6407 0.44173 0.7257 0.44173-0.91501 0.7888-1.546 0.69414-2.114-0.09465-0.56794 0-0.28397-0.44173-0.12621-0.44173 0.15776-0.22086-1.199-0.7257-0.66259-0.50483 0.53638-0.44173 0.12621-1.2936 2.5873z" fill="#fff"/>
 </g>
 <g transform="rotate(-45 65.453 27.303)">
  <path d="m63.925 109.04c-2.1956 0-3.9756-3.1643-3.9756-7.0677m0 0c-1e-6 -3.9034 1.7799-7.0677 3.9756-7.0677l3.4538-0.0436v14.279l-3.4538-0.0999" fill="#ffbd00" stroke="#000" stroke-linecap="round" stroke-linejoin="round" stroke-width=".92604"/>
  <ellipse cx="67.244" cy="102" rx="4.0165" ry="7.1086" fill="#ffbd00" stroke="#000" stroke-linecap="round" stroke-width=".93348"/>
  <path d="m60.801 99.515c0.66259-0.66259 1.199-0.94656 1.3252-0.41018 0.12621 0.53638 0 1.6407 0.44173 0.7257 0.44173-0.91501 0.7888-1.546 0.69414-2.114-0.09465-0.56794 0-0.28397-0.44173-0.12621-0.44173 0.15776-0.22086-1.199-0.7257-0.66259-0.50483 0.53638-0.44173 0.12621-1.2936 2.5873z" fill="#fff"/>
 </g>
 <g transform="translate(36.269 34.33)">
  <g transform="rotate(15.982 237.8 88.199)" stroke="#000" stroke-linecap="round" stroke-linejoin="round">
   <g fill="#6795dc" stroke-width="1.0627">
    <path d="m70.503 70.296c-0.37015 1.0341-1.4537 1.5918-2.4203 1.2459-0.96653-0.34598-1.45-1.4647-1.0798-2.4988 0.37015-1.0341 2.1878-3.6425 3.1543-3.2965 0.96653 0.34598 0.71594 3.5153 0.3458 4.5494z"/>
    <path d="m75.703 64.916c1.0683 0.3824 1.6628 1.4508 1.3279 2.3864-0.3349 0.93557-1.4724 1.384-2.5407 1.0016s-3.7813-2.2092-3.4464-3.1447c0.3349-0.93557 3.5909-0.62568 4.6591-0.24328z"/>
    <path d="m65.125 65.002c-1.0683-0.3824-1.6628-1.4508-1.3279-2.3864 0.3349-0.93557 1.4724-1.384 2.5407-1.0016s3.7813 2.2092 3.4464 3.1447c-0.3349 0.93557-3.5909 0.62568-4.6591 0.24328z"/>
    <path d="m70.448 59.565c0.37015-1.0341 1.4537-1.5918 2.4203-1.2459s1.45 1.4647 1.0798 2.4988-2.1878 3.6425-3.1543 3.2965c-0.96653-0.34598-0.71594-3.5153-0.3458-4.5494z"/>
    <path d="m66.683 68.788c-0.99292 0.46945-2.1536 0.09766-2.5924-0.83043-0.4388-0.92808 0.01041-2.061 1.0033-2.5305 0.99292-0.46945 4.1226-1.0286 4.5614-0.10054 0.4388 0.92808-1.9795 2.992-2.9724 3.4614z"/>
    <path d="m74.164 68.66c0.48498 1.0258 0.14988 2.2017-0.74848 2.6264s-2.0198-0.06249-2.5048-1.0883c-0.48498-1.0258-1.1117-4.2359-0.2133-4.6606s2.9816 2.0967 3.4665 3.1225z"/>
    <path d="m66.624 61.241c-0.48498-1.0258-0.14988-2.2017 0.74848-2.6264 0.89836-0.42474 2.0198 0.06249 2.5048 1.0883 0.48498 1.0258 1.1117 4.2359 0.2133 4.6606-0.89836 0.42474-2.9816-2.0967-3.4665-3.1225z"/>
    <path d="m74.232 61.161c0.99292-0.46945 2.1536-0.09766 2.5924 0.83043 0.4388 0.92808-0.01041 2.061-1.0033 2.5305-0.99292 0.46945-4.1226 1.0286-4.5614 0.10054s1.9795-2.992 2.9724-3.4614z"/>
   </g>
   <circle cx="70.524" cy="65.17" r="2.8335" fill="#ffe3e0" stroke-width=".836"/>
  </g>
 </g>
 <g transform="matrix(1.3082 0 0 1.3082 17.306 54.746)" stroke="#000" stroke-linecap="round" stroke-linejoin="round">
  <g transform="matrix(.51605 .18473 -.17881 .49952 40.622 24.597)" fill="#ff2908" stroke-width="1.2757">
   <path d="m79.426 62.113c0 2.0701-1.5183 3.7482-3.3912 3.7482s-3.3912-1.6781-3.3912-3.7482 1.5183-7.8534 3.3912-7.8534 3.3912 5.7833 3.3912 7.8534z"/>
   <path d="m85.048 49.262c2.0701 0 3.7482 1.5183 3.7482 3.3912s-1.6781 3.3912-3.7482 3.3912-7.8534-1.5183-7.8534-3.3912 5.7833-3.3912 7.8534-3.3912z"/>
   <path d="m66.932 56.134c-2.0701 0-3.7482-1.5183-3.7482-3.3912s1.6781-3.3912 3.7482-3.3912 7.8534 1.5183 7.8534 3.3912-5.7833 3.3912-7.8534 3.3912z"/>
   <path d="m72.733 43.104c0-2.0701 1.5183-3.7482 3.3912-3.7482s3.3912 1.6781 3.3912 3.7482-1.5183 7.8534-3.3912 7.8534-3.3912-5.7833-3.3912-7.8534z"/>
  </g>
  <g transform="matrix(.23428 .49553 -.47966 .22678 77.867 15.344)" fill="#ff2908" stroke-width="1.2757">
   <path d="m79.426 62.113c0 2.0701-1.5183 3.7482-3.3912 3.7482s-3.3912-1.6781-3.3912-3.7482 1.5183-7.8534 3.3912-7.8534 3.3912 5.7833 3.3912 7.8534z"/>
   <path d="m85.048 49.262c2.0701 0 3.7482 1.5183 3.7482 3.3912s-1.6781 3.3912-3.7482 3.3912-7.8534-1.5183-7.8534-3.3912 5.7833-3.3912 7.8534-3.3912z"/>
   <path d="m66.932 56.134c-2.0701 0-3.7482-1.5183-3.7482-3.3912s1.6781-3.3912 3.7482-3.3912 7.8534 1.5183 7.8534 3.3912-5.7833 3.3912-7.8534 3.3912z"/>
   <path d="m72.733 43.104c0-2.0701 1.5183-3.7482 3.3912-3.7482s3.3912 1.6781 3.3912 3.7482-1.5183 7.8534-3.3912 7.8534-3.3912-5.7833-3.3912-7.8534z"/>
  </g>
  <circle cx="70.524" cy="65.17" r="2.8335" fill="#ff7608" stroke-width=".68797"/>
 </g>
 <g transform="rotate(-47.646 79.467 99.809)">
  <path transform="matrix(.055444 .039033 -.036934 .056057 98.874 58.663)" d="m458.05 409.81c-4.6948 4.6768-71.848-27.776-78.395-26.752-6.5471 1.0241-60.582 52.434-66.481 49.414-5.8987-3.0198 4.2142-76.915 1.217-82.825-2.9972-5.9102-68.589-41.414-67.539-47.957s74.453-19.76 79.147-24.437c4.6948-4.6768 18.192-78.029 24.739-79.053s41.8 64.703 47.699 67.722c5.8987 3.0198 79.832-6.8105 82.829-0.90031 2.9972 5.9102-48.619 59.748-49.668 66.292s31.147 73.82 26.452 78.497z" fill="#49bf5e" stroke="#000" stroke-linecap="round" stroke-linejoin="round" stroke-width="12.394"/>
  <path d="m109.93 85.033s-0.56121 3.9125-0.29537 4.5751c0.26583 0.66259 2.8652 2.5242 3.6922 2.6188 0.82705 0.09466 1.152-0.25242 0.56121-0.47328-0.59075-0.22086-3.3968-1.3883-3.515-2.3664-0.11814-0.97811 0.29539-3.9756 0.11816-4.228-0.17723-0.25242-0.35445-0.34708-0.56122-0.12621z" fill="#fff"/>
  <path d="m103.02 86.453c1.4198 0.53638 3.313 0.85191 3.2499 1.199-0.0631 0.34708-0.56794 0.37863-1.1674 0.12621-0.59949-0.25242-2.2086-0.8519-2.2402-1.0728-0.0315-0.22086 0.15777-0.25242 0.15777-0.25242z" fill="#fff"/>
 </g>
 <g transform="translate(9.6127 26.852)">
  <path transform="matrix(.055444 .039033 -.036934 .056057 98.874 58.663)" d="m458.05 409.81c-4.6948 4.6768-71.848-27.776-78.395-26.752-6.5471 1.0241-60.582 52.434-66.481 49.414-5.8987-3.0198 4.2142-76.915 1.217-82.825-2.9972-5.9102-68.589-41.414-67.539-47.957s74.453-19.76 79.147-24.437c4.6948-4.6768 18.192-78.029 24.739-79.053s41.8 64.703 47.699 67.722c5.8987 3.0198 79.832-6.8105 82.829-0.90031 2.9972 5.9102-48.619 59.748-49.668 66.292s31.147 73.82 26.452 78.497z" fill="#bf62ff" stroke="#000" stroke-linecap="round" stroke-linejoin="round" stroke-width="12.394"/>
  <path d="m109.93 85.033s-0.56121 3.9125-0.29537 4.5751c0.26583 0.66259 2.8652 2.5242 3.6922 2.6188 0.82705 0.09466 1.152-0.25242 0.56121-0.47328-0.59075-0.22086-3.3968-1.3883-3.515-2.3664-0.11814-0.97811 0.29539-3.9756 0.11816-4.228-0.17723-0.25242-0.35445-0.34708-0.56122-0.12621z" fill="#fff"/>
  <path d="m103.02 86.453c1.4198 0.53638 3.313 0.85191 3.2499 1.199-0.0631 0.34708-0.56794 0.37863-1.1674 0.12621-0.59949-0.25242-2.2086-0.8519-2.2402-1.0728-0.0315-0.22086 0.15777-0.25242 0.15777-0.25242z" fill="#fff"/>
 </g>
 <path d="m119.83 138.77h5.1051s10.084 2.773 10.084 10.983v27.844s1.0709 7.8534-2.588 10.263c-3.659 2.4096-17.402 11.245-25.523 10.441-8.1211-0.80318-10.263-0.6247-10.531-7.8534-0.26773-7.2287-0.80319-42.747-0.80319-42.747s0.29027 0.97094 1.7402 0.71395c1.45-0.257 21.592-8.2812 21.592-8.2812s0.95007-0.34359 0.92368-1.3634z" fill="#fff"/>
 <path d="m111.95 171.64c-3.66-13.757-12.999-15.65-13.252-17.164-0.25242-1.5145 6.4366-7.4463 8.8346-7.3201s9.2132 1.1359 5.9318 15.902c-3.2814 14.766 1.1359 10.097 4.4173 8.7084s7.4463-5.3008 2.1455-16.281-12.747-8.2035-12.747-8.2035" fill="#fff" stroke="#000" stroke-width=".92604"/>
 <path d="m95.579 147.7s0.9366 1.3601 3.1902 0.45695c2.2536-0.90316 20.142-8.0242 20.142-8.0242s0.86083-0.20973 0.92368-1.3634" fill="none" stroke="#000" stroke-width=".8"/>
</svg>
